<?xml version="1.0" standalone="no"?>
<!DOCTYPE svg PUBLIC "-//W3C//DTD SVG 20010904//EN"
 "http://www.w3.org/TR/2001/REC-SVG-20010904/DTD/svg10.dtd">
<svg version="1.0" xmlns="http://www.w3.org/2000/svg"
 width="138.000000pt" height="95.000000pt" viewBox="0 0 138.000000 95.000000"
 preserveAspectRatio="xMidYMid meet">

<g transform="translate(0.000000,95.000000) scale(0.100000,-0.100000)"
fill="#000000" stroke="none">
<path d="M440 602 c0 -166 -8 -228 -32 -244 -22 -14 -65 -9 -89 11 l-23 19
-43 -57 c-23 -31 -43 -61 -43 -67 0 -14 34 -37 77 -52 25 -8 33 -8 37 3 3 9
-7 18 -29 25 -48 16 -51 26 -21 65 24 30 28 32 54 23 42 -16 99 -2 120 30 14
22 18 56 20 204 l4 178 50 0 50 0 -2 -132 c-3 -187 -2 -198 14 -198 10 0 13
18 13 69 0 118 61 211 162 247 60 22 159 17 216 -10 46 -21 105 -75 105 -96 0
-4 -21 -13 -46 -19 -42 -11 -49 -10 -68 8 -50 46 -142 55 -196 18 -72 -48 -96
-150 -54 -232 37 -73 145 -106 231 -70 50 21 73 43 73 72 0 22 -3 23 -70 23
l-70 0 0 45 0 46 113 -3 112 -3 3 -27 c6 -49 28 -33 24 17 l-4 45 -139 0 -139
0 0 -75 0 -74 73 -3 72 -3 -42 -22 c-44 -24 -105 -30 -146 -14 -91 35 -112
181 -35 246 50 42 160 28 188 -24 10 -19 11 -19 82 0 40 11 75 22 77 24 10 11
-27 70 -66 105 -60 52 -125 73 -216 68 -89 -4 -154 -35 -209 -98 l-39 -45 3
73 3 72 -77 0 -78 0 0 -168z"/>
</g>
</svg>
