<svg xmlns="http://www.w3.org/2000/svg" version="1.1" xmlns:xlink="http://www.w3.org/1999/xlink" xmlns:svgjs="http://svgjs.com/svgjs" width="1060.000000pt" height="1060.000000pt"><svg version="1.0" xmlns="http://www.w3.org/2000/svg" width="1060.000000pt" height="1060.000000pt" viewBox="0 0 1060.000000 1060.000000" preserveAspectRatio="xMidYMid meet">

<g transform="translate(0.000000,1060.000000) scale(0.100000,-0.100000)" fill="#000000" stroke="none">
<path d="M3790 8760 c0 -96 3 -132 13 -134 6 -2 78 -13 159 -25 199 -29 287
-53 393 -105 119 -59 157 -93 197 -174 l33 -67 3 -198 c4 -180 5 -198 20 -193
10 3 89 30 177 60 183 62 349 101 500 118 l105 12 0 84 c0 175 52 301 149 359
30 18 80 40 110 49 84 24 301 63 397 70 l84 7 0 133 0 134 -1170 0 -1170 0 0
-130z"></path>
<path d="M5489 7960 c-246 -14 -528 -70 -752 -151 -161 -59 -413 -185 -552
-278 -600 -399 -1010 -1048 -1144 -1811 -36 -202 -45 -329 -45 -585 2 -519 83
-890 289 -1310 133 -273 258 -454 448 -652 195 -203 349 -319 576 -436 l116
-60 13 44 c21 74 50 247 63 386 l12 132 -40 48 c-175 209 -386 656 -473 1002
-80 318 -104 573 -97 1000 6 318 14 419 57 659 132 747 482 1295 985 1545 294
145 673 191 1010 122 406 -84 743 -372 973 -831 84 -169 194 -470 256 -702
l23 -87 151 -3 152 -3 0 98 c0 135 -18 1232 -25 1483 -2 113 -5 222 -5 243 l0
37 -149 0 -148 0 -73 -122 c-40 -68 -75 -125 -77 -127 -1 -2 -24 8 -51 23
-167 96 -462 216 -653 265 -237 61 -547 87 -840 71z"></path>
<path d="M5265 7485 c-233 -54 -462 -168 -622 -310 l-52 -46 -4 -2002 c-4
-2138 -2 -2064 -52 -2333 -68 -372 -205 -598 -437 -719 -115 -61 -199 -78
-383 -78 -235 0 -358 30 -497 122 -72 48 -156 124 -185 168 -14 22 -13 29 25
107 22 46 79 146 128 222 170 269 216 386 217 549 2 163 -51 279 -167 367
-141 106 -380 127 -543 48 -123 -60 -229 -218 -274 -405 -19 -79 -21 -109 -16
-255 3 -96 12 -196 22 -240 85 -385 303 -656 667 -830 406 -194 1016 -183
1424 26 442 225 727 603 846 1121 l22 98 3 2208 c3 1779 1 2207 -9 2206 -7 0
-58 -11 -113 -24z"></path>
<path d="M5870 4791 l0 -130 58 -6 c330 -35 462 -60 583 -106 138 -53 202
-133 233 -291 30 -146 20 -1027 -13 -1188 -6 -29 -19 -43 -91 -92 -163 -111
-411 -200 -649 -233 -145 -21 -437 -16 -560 9 -41 9 -75 15 -76 13 -1 -1 -12
-29 -24 -62 -12 -33 -47 -107 -77 -164 -30 -58 -51 -108 -47 -112 19 -18 266
-31 468 -26 563 15 1176 165 1812 444 l42 18 -7 150 c-4 83 -7 398 -7 700 0
505 2 555 18 610 25 81 69 148 127 190 86 63 159 83 508 141 l32 5 0 129 0
130 -1165 0 -1165 0 0 -129z"></path>
</g>
</svg><style>@media (prefers-color-scheme: light) { :root { filter: none; } }
</style></svg>